0
SECTION
2
HEADER
9
$INSUNITS
70
4
9
$ACADVER
1
AC1014
9
$HANDSEED
5
FFFF
0
ENDSEC
0
SECTION
2
TABLES
0
TABLE
2
VPORT
5
8
100
AcDbSymbolTable
0
ENDTAB
0
TABLE
2
LTYPE
5
5
100
AcDbSymbolTable
0
LTYPE
5
14
100
AcDbSymbolTableRecord
100
AcDbLinetypeTableRecord
2
BYBLOCK
70
0
0
LTYPE
5
15
100
AcDbSymbolTableRecord
100
AcDbLinetypeTableRecord
2
BYLAYER
70
0
0
ENDTAB
0
TABLE
2
LAYER
5
2
100
AcDbSymbolTable
70
2
0
LAYER
5
50
100
AcDbSymbolTableRecord
100
AcDbLayerTableRecord
2
0
70
0
6
CONTINUOUS
0
ENDTAB
0
TABLE
2
STYLE
5
3
100
AcDbSymbolTable
70
1
0
STYLE
5
11
100
AcDbSymbolTableRecord
100
AcDbTextStyleTableRecord
2
STANDARD
70
0
0
ENDTAB
0
TABLE
2
VIEW
5
6
100
AcDbSymbolTable
70
0
0
ENDTAB
0
TABLE
2
UCS
5
7
100
AcDbSymbolTable
70
0
0
ENDTAB
0
TABLE
2
APPID
5
9
100
AcDbSymbolTable
70
2
0
APPID
5
12
100
AcDbSymbolTableRecord
100
AcDbRegAppTableRecord
2
ACAD
70
0
0
ENDTAB
0
TABLE
2
DIMSTYLE
5
A
100
AcDbSymbolTable
70
1
0
ENDTAB
0
TABLE
2
BLOCK_RECORD
5
1
100
AcDbSymbolTable
70
1
0
BLOCK_RECORD
5
1F
100
AcDbSymbolTableRecord
100
AcDbBlockTableRecord
2
*MODEL_SPACE
0
BLOCK_RECORD
5
1B
100
AcDbSymbolTableRecord
100
AcDbBlockTableRecord
2
*PAPER_SPACE
0
ENDTAB
0
ENDSEC
0
SECTION
2
BLOCKS
0
BLOCK
5
20
100
AcDbEntity
100
AcDbBlockBegin
2
*MODEL_SPACE
0
ENDBLK
5
21
100
AcDbEntity
100
AcDbBlockEnd
0
BLOCK
5
1C
100
AcDbEntity
100
AcDbBlockBegin
2
*PAPER_SPACE
0
ENDBLK
5
1D
100
AcDbEntity
100
AcDbBlockEnd
0
ENDSEC
0
SECTION
2
ENTITIES
0
LWPOLYLINE
5
100
100
AcDbEntity
8
0
100
AcDbPolyline
90
33
70
1
43
0.0
10
150.59349209073886
20
98.53277899365672
10
156.34904302529401
20
100.22795846490484
10
163.41229082216117
20
76.246496237591586
10
157.65673988760602
20
74.55131676634349
10
166.79526742848068
20
43.523769760000171
10
159.11728119132817
20
30.179145442241033
10
146.62646801669331
20
8.5232113225619166
10
138.93966313840184
20
-4.8163265372170549
10
125.8277397749049
20
-4.8163265372170549
10
117.98516050636961
20
-3.2371019120480149
10
93.477100292196823
20
1.6979750416052219
10
35.425404474966065
20
13.387581793200686
10
10.917344260793236
20
18.322658746853921
10
3.0747649922579612
20
19.901883372022947
10
-2.8828668839999949
20
37.740518653872741
10
-2.8828668839999949
20
45.740518653872748
10
-2.8828668839999949
20
65.740518653872741
10
-2.8828668839999949
20
101.56032600000002
10
-2.8828668839999949
20
121.56032600000002
10
-2.8828668839999949
20
129.560326
10
7.1171331160000051
20
129.560326
10
7.1171331160000051
20
135.56032600000003
10
32.117133116000005
20
135.56032600000003
10
32.117133116000005
20
129.560326
10
58.98472567854482
20
129.560326
10
58.98472567854482
20
133.96032600000001
10
64.98472567854482
20
133.96032600000001
10
64.98472567854482
20
138.560326
10
79.184725678544822
20
138.560326
10
120.79876663215606
20
138.560326
10
136.49876663215605
20
138.560326
10
136.49876663215605
20
129.560326
10
141.45496454986412
20
129.560326
0
LINE
5
101
100
AcDbEntity
8
0
100
AcDbLine
10
143.69879172350957
20
138.560326
30
0
11
136.49876663215605
21
138.560326
31
0
0
LINE
5
102
100
AcDbEntity
8
0
100
AcDbLine
10
164.31592612996641
20
27.183466754202019
30
0
11
151.82511295533155
21
5.5275326345229026
31
0
0
LINE
5
103
100
AcDbEntity
8
0
100
AcDbLine
10
159.11728119132817
20
30.179145442241033
30
0
11
164.31592612996641
21
27.183466754202019
31
0
0
LINE
5
104
100
AcDbEntity
8
0
100
AcDbLine
10
151.82511295533155
20
5.5275326345229026
30
0
11
146.62646801669331
21
8.5232113225619166
31
0
0
LINE
5
105
100
AcDbEntity
8
0
100
AcDbLine
10
-11.882866884
20
132.560326
30
0
11
-11.882866884000014
21
18.645423370738783
31
0
0
LINE
5
106
100
AcDbEntity
8
0
100
AcDbLine
10
-8.8828668840000091
20
121.56032600000002
30
0
11
-2.8828668839999949
21
121.56032600000002
31
0
0
LINE
5
107
100
AcDbEntity
8
0
100
AcDbLine
10
-8.8828668840000091
20
101.56032600000002
30
0
11
-8.8828668840000091
21
121.56032600000002
31
0
0
LINE
5
108
100
AcDbEntity
8
0
100
AcDbLine
10
-2.8828668839999949
20
101.56032600000002
30
0
11
-8.8828668840000091
21
101.56032600000002
31
0
0
LINE
5
109
100
AcDbEntity
8
0
100
AcDbLine
10
35.425404474966065
20
13.387581793200686
30
0
11
34.240986006089287
21
7.5056473417992109
31
0
0
LINE
5
110
100
AcDbEntity
8
0
100
AcDbLine
10
64.98472567854482
20
138.560326
30
0
11
-5.882866884000002
21
138.560326
31
0
0
ARC
5
111
100
AcDbEntity
8
0
100
AcDbCircle
10
-5.8828668839999896
20
132.560326
30
0
40
6.0000000000000142
210
0
220
0
230
1
100
AcDbArc
50
90.000000000000128
51
180
0
ARC
5
112
100
AcDbEntity
8
0
100
AcDbCircle
10
170.04262502700163
20
43.116537326673054
30
0
40
6.0000000000000604
210
-0
220
0
230
1
100
AcDbArc
50
-29.975693897604955
51
16.411255950057125
0
LINE
5
113
100
AcDbEntity
8
0
100
AcDbLine
10
144.28765101184285
20
-13.544946452997788
30
0
11
175.24004964665562
21
40.118741916206289
31
0
0
LINE
5
114
100
AcDbEntity
8
0
100
AcDbLine
10
-2.8828668839999949
20
45.740518653872748
30
0
11
-8.8828668840000091
21
45.740518653872748
31
0
0
LINE
5
115
100
AcDbEntity
8
0
100
AcDbLine
10
92.292681823320009
20
-4.1839594097962696
30
0
11
93.477100292196823
21
1.6979750416052219
31
0
0
LINE
5
116
100
AcDbEntity
8
0
100
AcDbLine
10
-7.0672853528767732
20
12.763488919337306
30
0
11
137.90580792331218
21
-16.429085493932519
31
0
0
ARC
5
117
100
AcDbEntity
8
0
100
AcDbCircle
10
139.09022639218898
20
-10.547151042531071
30
0
40
5.9999999999999716
210
0
220
0
230
1
100
AcDbArc
50
258.61486096137747
51
330.02430610239486
0
ARC
5
118
100
AcDbEntity
8
0
100
AcDbCircle
10
143.69879172350957
20
132.560326
30
0
40
6.0000000000000187
210
0
220
-0
230
1
100
AcDbArc
50
16.41125595005742
51
90
0
ARC
5
119
100
AcDbEntity
8
0
100
AcDbCircle
10
-5.882866884000002
20
18.645423370738797
30
0
40
6.0000000000000124
210
0
220
0
230
1
100
AcDbArc
50
180
51
258.61486096137776
0
LINE
5
120
100
AcDbEntity
8
0
100
AcDbLine
10
116.80074203749282
20
-9.1190363634494886
30
0
11
92.292681823320009
21
-4.1839594097962696
31
0
0
LINE
5
121
100
AcDbEntity
8
0
100
AcDbLine
10
117.98516050636961
20
-3.2371019120480149
30
0
11
116.80074203749282
21
-9.1190363634494886
31
0
0
LINE
5
122
100
AcDbEntity
8
0
100
AcDbLine
10
9.7329257919164647
20
12.44072429545243
30
0
11
10.917344260793236
21
18.322658746853921
31
0
0
LINE
5
123
100
AcDbEntity
8
0
100
AcDbLine
10
-8.8828668840000091
20
45.740518653872748
30
0
11
-8.8828668840000091
21
65.740518653872741
31
0
0
LINE
5
124
100
AcDbEntity
8
0
100
AcDbLine
10
-8.8828668840000091
20
65.740518653872741
30
0
11
-2.8828668839999949
21
65.740518653872741
31
0
0
LINE
5
125
100
AcDbEntity
8
0
100
AcDbLine
10
175.79817596155689
20
44.811716797921179
30
0
11
149.45434265806477
21
134.25550547124814
31
0
0
LINE
5
126
100
AcDbEntity
8
0
100
AcDbLine
10
34.240986006089287
20
7.5056473417992109
30
0
11
9.7329257919164647
21
12.44072429545243
31
0
0
CIRCLE
5
127
100
AcDbEntity
8
0
100
AcDbCircle
10
-7.8828668840000171
20
17.733180736029542
30
0
40
1.5000000000000002
210
0
220
0
230
1
0
CIRCLE
5
128
100
AcDbEntity
8
0
100
AcDbCircle
10
-7.8828668840000171
20
134.560326
30
0
40
1.5000000000000013
210
0
220
0
230
1
0
CIRCLE
5
129
100
AcDbEntity
8
0
100
AcDbCircle
10
173.54625739953408
20
42.706294912404879
30
0
40
1.5000000000000213
210
0
220
0
230
1
0
CIRCLE
5
130
100
AcDbEntity
8
0
100
AcDbCircle
10
145.18644607080057
20
135.56032600000003
30
0
40
1.5000000000000036
210
0
220
0
230
1
0
CIRCLE
5
131
100
AcDbEntity
8
0
100
AcDbCircle
10
140.42351158164388
20
-12.315526179879242
30
0
40
1.5000000000000036
210
0
220
0
230
1
0
LINE
5
132
100
AcDbEntity
8
0
100
AcDbLine
10
150.59349209073886
20
98.53277899365672
30
0
11
157.65673988760602
21
74.55131676634349
31
0
0
LINE
5
133
100
AcDbEntity
8
0
100
AcDbLine
10
79.184725678544822
20
138.560326
30
0
11
79.184725678544822
21
133.96032600000001
31
0
0
LINE
5
134
100
AcDbEntity
8
0
100
AcDbLine
10
120.79876663215606
20
138.560326
30
0
11
120.79876663215606
21
129.560326
31
0
0
LWPOLYLINE
5
135
100
AcDbEntity
8
0
100
AcDbPolyline
90
4
70
1
43
0.0
10
112.39876663215605
20
129.560326
10
112.39876663215605
20
135.560326
10
85.398766632156054
20
135.560326
10
85.398766632156054
20
129.560326
0
LINE
5
136
100
AcDbEntity
8
0
100
AcDbLine
10
112.39876663215605
20
129.560326
30
0
11
120.79876663215606
21
129.560326
31
0
0
LINE
5
137
100
AcDbEntity
8
0
100
AcDbLine
10
120.79876663215606
20
129.560326
30
0
11
136.49876663215605
21
129.560326
31
0
0
LINE
5
138
100
AcDbEntity
8
0
100
AcDbLine
10
64.98472567854482
20
133.96032600000001
30
0
11
79.184725678544822
21
133.96032600000001
31
0
0
LINE
5
139
100
AcDbEntity
8
0
100
AcDbLine
10
79.184725678544822
20
133.96032600000001
30
0
11
85.398766632156054
21
133.96032600000001
31
0
0
ENDSEC
0
SECTION
2
OBJECTS
0
DICTIONARY
5
C
100
AcDbDictionary
3
ACAD_GROUP
350
D
3
ACAD_MLINESTYLE
350
17
0
DICTIONARY
5
D
100
AcDbDictionary
0
DICTIONARY
5
1A
330
C
100
AcDbDictionary
0
DICTIONARY
5
17
100
AcDbDictionary
0
ENDSEC
0
EOF
