0
SECTION
2
HEADER
9
$INSUNITS
70
4
9
$ACADVER
1
AC1014
9
$HANDSEED
5
FFFF
0
ENDSEC
0
SECTION
2
TABLES
0
TABLE
2
VPORT
5
8
100
AcDbSymbolTable
0
ENDTAB
0
TABLE
2
LTYPE
5
5
100
AcDbSymbolTable
0
LTYPE
5
14
100
AcDbSymbolTableRecord
100
AcDbLinetypeTableRecord
2
BYBLOCK
70
0
0
LTYPE
5
15
100
AcDbSymbolTableRecord
100
AcDbLinetypeTableRecord
2
BYLAYER
70
0
0
ENDTAB
0
TABLE
2
LAYER
5
2
100
AcDbSymbolTable
70
2
0
LAYER
5
50
100
AcDbSymbolTableRecord
100
AcDbLayerTableRecord
2
0
70
0
6
CONTINUOUS
0
ENDTAB
0
TABLE
2
STYLE
5
3
100
AcDbSymbolTable
70
1
0
STYLE
5
11
100
AcDbSymbolTableRecord
100
AcDbTextStyleTableRecord
2
STANDARD
70
0
0
ENDTAB
0
TABLE
2
VIEW
5
6
100
AcDbSymbolTable
70
0
0
ENDTAB
0
TABLE
2
UCS
5
7
100
AcDbSymbolTable
70
0
0
ENDTAB
0
TABLE
2
APPID
5
9
100
AcDbSymbolTable
70
2
0
APPID
5
12
100
AcDbSymbolTableRecord
100
AcDbRegAppTableRecord
2
ACAD
70
0
0
ENDTAB
0
TABLE
2
DIMSTYLE
5
A
100
AcDbSymbolTable
70
1
0
ENDTAB
0
TABLE
2
BLOCK_RECORD
5
1
100
AcDbSymbolTable
70
1
0
BLOCK_RECORD
5
1F
100
AcDbSymbolTableRecord
100
AcDbBlockTableRecord
2
*MODEL_SPACE
0
BLOCK_RECORD
5
1B
100
AcDbSymbolTableRecord
100
AcDbBlockTableRecord
2
*PAPER_SPACE
0
ENDTAB
0
ENDSEC
0
SECTION
2
BLOCKS
0
BLOCK
5
20
100
AcDbEntity
100
AcDbBlockBegin
2
*MODEL_SPACE
0
ENDBLK
5
21
100
AcDbEntity
100
AcDbBlockEnd
0
BLOCK
5
1C
100
AcDbEntity
100
AcDbBlockBegin
2
*PAPER_SPACE
0
ENDBLK
5
1D
100
AcDbEntity
100
AcDbBlockEnd
0
ENDSEC
0
SECTION
2
ENTITIES
0
LWPOLYLINE
5
100
100
AcDbEntity
8
0
100
AcDbPolyline
90
18
70
1
43
0.0
10
-199.56390972955691
20
44.811716797921207
42
0.20521117964077096
10
-199.00578341465564
20
40.118741916206332
10
-168.0533847798429
20
-13.544946452997753
42
0.32207325335365272
10
-161.67154169131223
20
-16.429085493932476
10
-16.698448415123256
20
12.763488919337309
42
0.35714071566862432
10
-11.882866884000014
20
18.645423370738783
10
-11.882866884
20
132.560326
42
0.41421356237309342
10
-17.882866883999995
20
138.560326
10
-88.750459446544824
20
138.56032600000003
10
-88.750459446544824
20
133.96032600000001
10
-102.95045944654483
20
133.96032600000001
10
-102.95045944654483
20
138.56032600000003
10
-144.56450040015605
20
138.56032600000003
10
-144.56450040015605
20
129.56032600000003
10
-160.26450040015607
20
129.56032600000003
10
-160.26450040015607
20
138.56032600000003
10
-167.46452549150959
20
138.56032600000003
42
0.33260117699302955
10
-173.22007642606479
20
134.25550547124817
0
LINE
5
101
100
AcDbEntity
8
0
100
AcDbLine
10
-149.59347354290492
20
-4.8163265372170194
30
0
11
-141.75089427436964
21
-3.2371019120479794
31
0
0
LINE
5
102
100
AcDbEntity
8
0
100
AcDbLine
10
-165.22069831786413
20
129.56032600000003
30
0
11
-174.35922585873891
21
98.532778993656763
31
0
0
LINE
5
103
100
AcDbEntity
8
0
100
AcDbLine
10
-20.88286688400002
20
65.740518653872741
30
0
11
-20.882866884000009
21
101.56032600000002
31
0
0
LWPOLYLINE
5
104
100
AcDbEntity
8
0
100
AcDbPolyline
90
4
70
1
43
0.0
10
-187.17802459016121
20
76.246496237591629
10
-181.42247365560607
20
74.551316766343518
10
-174.35922585873891
20
98.532778993656763
10
-180.11477679329403
20
100.22795846490489
0
LWPOLYLINE
5
105
100
AcDbEntity
8
0
100
AcDbPolyline
90
4
70
1
43
0.0
10
-136.16450040015604
20
129.56032600000003
10
-136.16450040015604
20
135.56032600000003
10
-109.16450040015604
20
135.56032600000003
10
-109.16450040015604
20
129.56032600000003
0
LWPOLYLINE
5
106
100
AcDbEntity
8
0
100
AcDbPolyline
90
4
70
1
43
0.0
10
-34.683078028793261
20
18.322658746853921
10
-59.191138242966097
20
13.387581793200702
10
-58.006719774089319
20
7.5056473417992287
10
-33.49865955991649
20
12.44072429545243
0
LINE
5
107
100
AcDbEntity
8
0
100
AcDbLine
10
-102.95045944654483
20
133.96032600000001
30
0
11
-109.16450040015604
21
133.96032600000001
31
0
0
LWPOLYLINE
5
108
100
AcDbEntity
8
0
100
AcDbPolyline
90
4
70
1
43
0.0
10
-175.59084672333157
20
5.5275326345229381
10
-170.39220178469336
20
8.5232113225619521
10
-182.88301495932819
20
30.179145442241069
10
-188.08165989796646
20
27.183466754202055
0
LINE
5
109
100
AcDbEntity
8
0
100
AcDbLine
10
-30.882866884000006
20
135.56032600000003
30
0
11
-55.882866884000002
21
135.56032600000003
31
0
0
LINE
5
110
100
AcDbEntity
8
0
100
AcDbLine
10
-30.882866884000006
20
129.560326
30
0
11
-30.882866884000006
21
135.56032600000003
31
0
0
LINE
5
111
100
AcDbEntity
8
0
100
AcDbLine
10
-160.26450040015607
20
129.56032600000003
30
0
11
-165.22069831786413
21
129.56032600000003
31
0
0
CIRCLE
5
112
100
AcDbEntity
8
0
100
AcDbCircle
10
-168.95217983880059
20
135.56032600000006
30
0
40
1.5000000000000036
210
0
220
0
230
1
0
CIRCLE
5
113
100
AcDbEntity
8
0
100
AcDbCircle
10
-164.18924534964393
20
-12.31552617987921
30
0
40
1.5000000000000036
210
0
220
0
230
1
0
LINE
5
114
100
AcDbEntity
8
0
100
AcDbLine
10
-102.95045944654483
20
138.56032600000003
30
0
11
-88.750459446544824
21
138.56032600000003
31
0
0
LWPOLYLINE
5
115
100
AcDbEntity
8
0
100
AcDbPolyline
90
4
70
1
43
0.0
10
-20.88286688400002
20
65.740518653872741
10
-20.88286688400003
20
45.740518653872755
10
-14.882866884000013
20
45.740518653872755
10
-14.882866884000007
20
65.740518653872741
0
LINE
5
116
100
AcDbEntity
8
0
100
AcDbLine
10
-55.882866884000002
20
135.56032600000003
30
0
11
-55.882866884000002
21
129.56032600000003
31
0
0
LWPOLYLINE
5
117
100
AcDbEntity
8
0
100
AcDbPolyline
90
4
70
1
43
0.0
10
-20.882866884000009
20
121.56032600000002
10
-20.882866884000009
20
101.56032600000002
10
-14.882866884000002
20
101.56032600000002
10
-14.882866883999995
20
121.56032600000002
0
LINE
5
118
100
AcDbEntity
8
0
100
AcDbLine
10
-34.683078028793261
20
18.322658746853921
30
0
11
-26.84049876025799
21
19.901883372022944
31
0
0
LINE
5
119
100
AcDbEntity
8
0
100
AcDbLine
10
-20.882866884000006
20
129.560326
30
0
11
-30.882866884000006
21
129.560326
31
0
0
LINE
5
120
100
AcDbEntity
8
0
100
AcDbLine
10
-88.750459446544824
20
133.96032600000001
30
0
11
-82.750459446544809
21
133.96032600000001
31
0
0
CIRCLE
5
121
100
AcDbEntity
8
0
100
AcDbCircle
10
-15.882866884000011
20
17.733180736029546
30
0
40
1.5000000000000002
210
0
220
0
230
1
0
LINE
5
122
100
AcDbEntity
8
0
100
AcDbLine
10
-26.84049876025799
20
19.901883372022944
30
0
11
-20.88286688400003
21
37.740518653872748
31
0
0
LWPOLYLINE
5
123
100
AcDbEntity
8
0
100
AcDbPolyline
90
4
70
1
43
0.0
10
-141.75089427436964
20
-3.2371019120479794
10
-140.56647580549284
20
-9.1190363634494531
10
-116.05841559132004
20
-4.1839594097962518
10
-117.24283406019686
20
1.6979750416052397
0
LINE
5
124
100
AcDbEntity
8
0
100
AcDbLine
10
-55.882866884000002
20
129.56032600000003
30
0
11
-82.750459446544809
21
129.56032600000003
31
0
0
LINE
5
125
100
AcDbEntity
8
0
100
AcDbLine
10
-181.42247365560607
20
74.551316766343518
30
0
11
-190.56100119648073
21
43.523769760000199
31
0
0
LINE
5
126
100
AcDbEntity
8
0
100
AcDbLine
10
-170.39220178469336
20
8.5232113225619521
30
0
11
-162.70539690640189
21
-4.8163265372170194
31
0
0
LINE
5
127
100
AcDbEntity
8
0
100
AcDbLine
10
-82.750459446544809
20
133.96032600000001
30
0
11
-82.750459446544809
21
129.56032600000003
31
0
0
LINE
5
128
100
AcDbEntity
8
0
100
AcDbLine
10
-20.88286688400003
20
37.740518653872748
30
0
11
-20.88286688400003
21
45.740518653872755
31
0
0
CIRCLE
5
129
100
AcDbEntity
8
0
100
AcDbCircle
10
-15.882866883999984
20
134.560326
30
0
40
1.5000000000000013
210
0
220
0
230
1
0
LINE
5
130
100
AcDbEntity
8
0
100
AcDbLine
10
-162.70539690640189
20
-4.8163265372170194
30
0
11
-149.59347354290492
21
-4.8163265372170194
31
0
0
CIRCLE
5
131
100
AcDbEntity
8
0
100
AcDbCircle
10
-197.31199116753413
20
42.706294912404914
30
0
40
1.5000000000000213
210
0
220
0
230
1
0
LINE
5
132
100
AcDbEntity
8
0
100
AcDbLine
10
-190.56100119648073
20
43.523769760000199
30
0
11
-182.88301495932819
21
30.179145442241069
31
0
0
LINE
5
133
100
AcDbEntity
8
0
100
AcDbLine
10
-144.56450040015605
20
138.56032600000003
30
0
11
-160.26450040015607
21
138.56032600000003
31
0
0
LINE
5
134
100
AcDbEntity
8
0
100
AcDbLine
10
-20.882866884000009
20
121.56032600000002
30
0
11
-20.882866884000006
21
129.560326
31
0
0
LINE
5
135
100
AcDbEntity
8
0
100
AcDbLine
10
-136.16450040015604
20
129.56032600000003
30
0
11
-144.56450040015605
21
129.56032600000003
31
0
0
LINE
5
136
100
AcDbEntity
8
0
100
AcDbLine
10
-117.24283406019686
20
1.6979750416052397
30
0
11
-59.191138242966097
21
13.387581793200702
31
0
0
ENDSEC
0
SECTION
2
OBJECTS
0
DICTIONARY
5
C
100
AcDbDictionary
3
ACAD_GROUP
350
D
3
ACAD_MLINESTYLE
350
17
0
DICTIONARY
5
D
100
AcDbDictionary
0
DICTIONARY
5
1A
330
C
100
AcDbDictionary
0
DICTIONARY
5
17
100
AcDbDictionary
0
ENDSEC
0
EOF
