0
SECTION
2
HEADER
9
$INSUNITS
70
4
9
$ACADVER
1
AC1014
9
$HANDSEED
5
FFFF
0
ENDSEC
0
SECTION
2
TABLES
0
TABLE
2
VPORT
5
8
100
AcDbSymbolTable
0
ENDTAB
0
TABLE
2
LTYPE
5
5
100
AcDbSymbolTable
0
LTYPE
5
14
100
AcDbSymbolTableRecord
100
AcDbLinetypeTableRecord
2
BYBLOCK
70
0
0
LTYPE
5
15
100
AcDbSymbolTableRecord
100
AcDbLinetypeTableRecord
2
BYLAYER
70
0
0
ENDTAB
0
TABLE
2
LAYER
5
2
100
AcDbSymbolTable
70
2
0
LAYER
5
50
100
AcDbSymbolTableRecord
100
AcDbLayerTableRecord
2
0
70
0
6
CONTINUOUS
0
ENDTAB
0
TABLE
2
STYLE
5
3
100
AcDbSymbolTable
70
1
0
STYLE
5
11
100
AcDbSymbolTableRecord
100
AcDbTextStyleTableRecord
2
STANDARD
70
0
0
ENDTAB
0
TABLE
2
VIEW
5
6
100
AcDbSymbolTable
70
0
0
ENDTAB
0
TABLE
2
UCS
5
7
100
AcDbSymbolTable
70
0
0
ENDTAB
0
TABLE
2
APPID
5
9
100
AcDbSymbolTable
70
2
0
APPID
5
12
100
AcDbSymbolTableRecord
100
AcDbRegAppTableRecord
2
ACAD
70
0
0
ENDTAB
0
TABLE
2
DIMSTYLE
5
A
100
AcDbSymbolTable
70
1
0
ENDTAB
0
TABLE
2
BLOCK_RECORD
5
1
100
AcDbSymbolTable
70
1
0
BLOCK_RECORD
5
1F
100
AcDbSymbolTableRecord
100
AcDbBlockTableRecord
2
*MODEL_SPACE
0
BLOCK_RECORD
5
1B
100
AcDbSymbolTableRecord
100
AcDbBlockTableRecord
2
*PAPER_SPACE
0
ENDTAB
0
ENDSEC
0
SECTION
2
BLOCKS
0
BLOCK
5
20
100
AcDbEntity
100
AcDbBlockBegin
2
*MODEL_SPACE
0
ENDBLK
5
21
100
AcDbEntity
100
AcDbBlockEnd
0
BLOCK
5
1C
100
AcDbEntity
100
AcDbBlockBegin
2
*PAPER_SPACE
0
ENDBLK
5
1D
100
AcDbEntity
100
AcDbBlockEnd
0
ENDSEC
0
SECTION
2
ENTITIES
0
LINE
5
100
100
AcDbEntity
8
0
100
AcDbLine
10
66.342261539999939
20
-79.123744329762616
30
0
11
66.342261539999939
21
-62.073679738484969
31
0
0
SPLINE
5
101
100
AcDbEntity
8
0
100
AcDbSpline
70
0
71
3
72
8
73
4
74
0
42
0.000000001
43
0.0000000001
44
0.0000000001
40
1
40
1
40
1
40
1
40
2
40
2
40
2
40
2
10
66.342261539999939
20
-62.073679738484969
30
0
10
66.342261539999939
20
-60.969110239099606
30
0
10
67.237692040114794
20
-60.073679738985092
30
0
10
68.342261539500129
20
-60.073679738985092
30
0
0
SPLINE
5
102
100
AcDbEntity
8
0
100
AcDbSpline
70
0
71
3
72
8
73
4
74
0
42
0.000000001
43
0.0000000001
44
0.0000000001
40
7
40
7
40
7
40
7
40
8
40
8
40
8
40
8
10
66.343176623406237
20
-52.073672789758959
30
0
10
65.238697428779602
20
-52.073672789758959
30
0
10
64.343305138091168
20
-52.968963872142048
30
0
10
64.343180289143376
20
-54.073443059712574
30
0
0
LINE
5
103
100
AcDbEntity
8
0
100
AcDbLine
10
64.343180289143376
20
-54.073443059712574
30
0
11
64.3422759515785
21
-62.073686859253321
31
0
0
LINE
5
104
100
AcDbEntity
8
0
100
AcDbLine
10
64.3422759515785
20
-62.073686859253321
30
0
11
64.3422759515785
21
-77.123672613954369
31
0
0
SPLINE
5
105
100
AcDbEntity
8
0
100
AcDbSpline
70
0
71
3
72
8
73
4
74
0
42
0.000000001
43
0.0000000001
44
0.0000000001
40
10
40
10
40
10
40
10
40
11
40
11
40
11
40
11
10
64.3422759515785
20
-77.123672613954369
30
0
10
64.3422759515785
20
-78.228246046031103
30
0
10
63.446842263387317
20
-79.123679734222591
30
0
10
62.342268831310264
20
-79.123679734222591
30
0
0
LINE
5
106
100
AcDbEntity
8
0
100
AcDbLine
10
62.342268831310264
20
-79.123679734222591
30
0
11
56.817283074227973
21
-79.123679734222591
31
0
0
SPLINE
5
107
100
AcDbEntity
8
0
100
AcDbSpline
70
0
71
3
72
8
73
4
74
0
42
0.000000001
43
0.0000000001
44
0.0000000001
40
12
40
12
40
12
40
12
40
13
40
13
40
13
40
13
10
56.817283074227973
20
-79.123679734222591
30
0
10
55.712709642150926
20
-79.123679734222591
30
0
10
54.817275953959751
20
-80.019113422413781
30
0
10
54.817275953959751
20
-81.123686854490813
30
0
0
LINE
5
108
100
AcDbEntity
8
0
100
AcDbLine
10
54.817275953959751
20
-81.123686854490813
30
0
11
54.817275953959751
21
-96.173564949957964
31
0
0
SPLINE
5
109
100
AcDbEntity
8
0
100
AcDbSpline
70
0
71
3
72
8
73
4
74
0
42
0.000000001
43
0.0000000001
44
0.0000000001
40
14
40
14
40
14
40
14
40
15
40
15
40
15
40
15
10
54.817275953959751
20
-96.173564949957964
30
0
10
54.817275953959751
20
-97.278126490324439
30
0
10
55.712700002014721
20
-98.173550538379402
30
0
10
56.81726154238121
20
-98.173550538379402
30
0
0
LINE
5
110
100
AcDbEntity
8
0
100
AcDbLine
10
56.81726154238121
20
-98.173550538379402
30
0
11
57.57979036434768
21
-98.173550538379402
31
0
0
SPLINE
5
111
100
AcDbEntity
8
0
100
AcDbSpline
70
0
71
3
72
8
73
4
74
0
42
0.000000001
43
0.0000000001
44
0.0000000001
40
16
40
16
40
16
40
16
40
17
40
17
40
17
40
17
10
57.57979036434768
20
-98.173550538379402
30
0
10
58.684351904714156
20
-98.173550538379402
30
0
10
59.57977595276914
20
-99.068974586434365
30
0
10
59.57977595276914
20
-100.17353612680081
30
0
0
LINE
5
112
100
AcDbEntity
8
0
100
AcDbLine
10
59.57977595276914
20
-100.17353612680081
30
0
11
59.57977595276914
21
-115.22354341334869
31
0
0
SPLINE
5
113
100
AcDbEntity
8
0
100
AcDbSpline
70
0
71
3
72
8
73
4
74
0
42
0.000000001
43
0.0000000001
44
0.0000000001
40
18
40
18
40
18
40
18
40
19
40
19
40
19
40
19
10
59.57977595276914
20
-115.22354341334869
30
0
10
59.57977595276914
20
-116.32811684542568
30
0
10
60.475209640960308
20
-117.2235505336169
30
0
10
61.579783073037355
20
-117.2235505336169
30
0
0
LINE
5
114
100
AcDbEntity
8
0
100
AcDbLine
10
61.579783073037355
20
-117.2235505336169
30
0
11
67.104790361966437
21
-117.2235505336169
31
0
0
SPLINE
5
115
100
AcDbEntity
8
0
100
AcDbSpline
70
0
71
3
72
8
73
4
74
0
42
0.000000001
43
0.0000000001
44
0.0000000001
40
20
40
20
40
20
40
20
40
21
40
21
40
21
40
21
10
67.104790361966437
20
-117.2235505336169
30
0
10
68.209351902332912
20
-117.2235505336169
30
0
10
69.104775950387875
20
-118.11897458167192
30
0
10
69.104775950387875
20
-119.22353612203828
30
0
0
LINE
5
116
100
AcDbEntity
8
0
100
AcDbLine
10
69.104775950387875
20
-119.22353612203828
30
0
11
69.104775950387875
21
-161.32355035304982
31
0
0
SPLINE
5
117
100
AcDbEntity
8
0
100
AcDbSpline
70
0
71
3
72
8
73
4
74
0
42
0.000000001
43
0.0000000001
44
0.0000000001
40
22
40
22
40
22
40
22
40
23
40
23
40
23
40
23
10
69.104775950387875
20
-161.32355035304982
30
0
10
69.104775950387875
20
-162.42812378512681
30
0
10
70.000209638579051
20
-163.323557473318
30
0
10
71.104783070656083
20
-163.323557473318
30
0
0
LINE
5
118
100
AcDbEntity
8
0
100
AcDbLine
10
71.104783070656083
20
-163.323557473318
30
0
11
239.79198870339752
21
-163.323557473318
31
0
0
SPLINE
5
119
100
AcDbEntity
8
0
100
AcDbSpline
70
0
71
3
72
8
73
4
74
0
42
0.000000001
43
0.0000000001
44
0.0000000001
40
24
40
24
40
24
40
24
40
25
40
25
40
25
40
25
10
239.79198870339752
20
-163.323557473318
30
0
10
242.00113556755159
20
-163.323557473318
30
0
10
243.79200294393399
20
-161.53269009693571
30
0
10
243.79200294393399
20
-159.32354323278159
30
0
0
LINE
5
120
100
AcDbEntity
8
0
100
AcDbLine
10
243.79200294393399
20
-159.32354323278159
30
0
11
243.79200294393399
21
-56.073687030295417
31
0
0
SPLINE
5
121
100
AcDbEntity
8
0
100
AcDbSpline
70
0
71
3
72
8
73
4
74
0
42
0.000000001
43
0.0000000001
44
0.0000000001
40
26
40
26
40
26
40
26
40
27
40
27
40
27
40
27
10
243.79200294393399
20
-56.073687030295424
30
0
10
243.79200294393399
20
-53.864540166140998
30
0
10
242.00113556755159
20
-52.073672789758959
30
0
10
239.79198870339752
20
-52.073672789758959
30
0
0
SPLINE
5
122
100
AcDbEntity
8
0
100
AcDbSpline
70
0
71
3
72
8
73
4
74
0
42
0.000000001
43
0.0000000001
44
0.0000000001
40
32
40
32
40
32
40
32
40
33
40
33
40
33
40
33
10
233.79203193813316
20
-60.071806468314996
30
0
10
234.89660537021018
20
-60.071806468314996
30
0
10
235.79203905840137
20
-60.967240156506186
30
0
10
235.79203905840137
20
-62.071813588582884
30
0
0
LINE
5
123
100
AcDbEntity
8
0
100
AcDbLine
10
235.79203905840137
20
-62.071813588582884
30
0
11
235.79203905840137
21
-153.32179932423432
31
0
0
SPLINE
5
124
100
AcDbEntity
8
0
100
AcDbSpline
70
0
71
3
72
8
73
4
74
0
42
0.000000001
43
0.0000000001
44
0.0000000001
40
34
40
34
40
34
40
34
40
35
40
35
40
35
40
35
10
235.79203905840137
20
-153.32179932423432
30
0
10
235.79203905840137
20
-154.42637275631131
30
0
10
234.89660537021018
20
-155.32180644450247
30
0
10
233.79203193813316
20
-155.32180644450247
30
0
0
LINE
5
125
100
AcDbEntity
8
0
100
AcDbLine
10
233.79203193813316
20
-155.32180644450247
30
0
11
73.104768659077564
21
-155.32180644450247
31
0
0
SPLINE
5
126
100
AcDbEntity
8
0
100
AcDbSpline
70
0
71
3
72
8
73
4
74
0
42
0.000000001
43
0.0000000001
44
0.0000000001
40
36
40
36
40
36
40
36
40
37
40
37
40
37
40
37
10
73.10476865907755
20
-155.32180644450247
30
0
10
72.000195227000503
20
-155.32180644450247
30
0
10
71.104761538809313
20
-154.42637275631131
30
0
10
71.104761538809313
20
-153.32179932423432
30
0
0
LINE
5
127
100
AcDbEntity
8
0
100
AcDbLine
10
71.104761538809313
20
-153.32179932423432
30
0
11
71.104761538809313
21
-117.22365819285081
31
0
0
SPLINE
5
128
100
AcDbEntity
8
0
100
AcDbSpline
70
0
71
3
72
8
73
4
74
0
42
0.000000001
43
0.0000000001
44
0.0000000001
40
38
40
38
40
38
40
38
40
39
40
39
40
39
40
39
10
71.104761538809313
20
-117.22365819285081
30
0
10
71.104761538809313
20
-116.11908476077377
30
0
10
70.209327850618138
20
-115.22365107258258
30
0
10
69.104754418541091
20
-115.22365107258258
30
0
0
LINE
5
129
100
AcDbEntity
8
0
100
AcDbLine
10
69.104754418541091
20
-115.22365107258258
30
0
11
63.579768661458786
21
-115.22365107258258
31
0
0
SPLINE
5
130
100
AcDbEntity
8
0
100
AcDbSpline
70
0
71
3
72
8
73
4
74
0
42
0.000000001
43
0.0000000001
44
0.0000000001
40
40
40
40
40
40
40
40
40
41
40
41
40
41
40
41
10
63.579768661458786
20
-115.22365107258258
30
0
10
62.475195229381754
20
-115.22365107258258
30
0
10
61.579761541190564
20
-114.32821738439139
30
0
10
61.579761541190564
20
-113.22364395231443
30
0
0
LINE
5
131
100
AcDbEntity
8
0
100
AcDbLine
10
61.579761541190564
20
-113.22364395231443
30
0
11
61.579761541190564
21
-98.173658197613292
31
0
0
SPLINE
5
132
100
AcDbEntity
8
0
100
AcDbSpline
70
0
71
3
72
8
73
4
74
0
42
0.000000001
43
0.0000000001
44
0.0000000001
40
42
40
42
40
42
40
42
40
43
40
43
40
43
40
43
10
61.579761541190564
20
-98.173658197613292
30
0
10
61.579761541190564
20
-97.069084765536275
30
0
10
60.684327852999388
20
-96.173651077345085
30
0
10
59.579754420922349
20
-96.173651077345085
30
0
0
LINE
5
133
100
AcDbEntity
8
0
100
AcDbLine
10
59.579754420922349
20
-96.173651077345085
30
0
11
58.817268662649411
21
-96.173651077345085
31
0
0
SPLINE
5
134
100
AcDbEntity
8
0
100
AcDbSpline
70
0
71
3
72
8
73
4
74
0
42
0.000000001
43
0.0000000001
44
0.0000000001
40
44
40
44
40
44
40
44
40
45
40
45
40
45
40
45
10
58.817268662649411
20
-96.173651077345085
30
0
10
57.712695230572386
20
-96.173651077345085
30
0
10
56.81726154238121
20
-95.278217389153909
30
0
10
56.81726154238121
20
-94.173643957076536
30
0
0
LINE
5
135
100
AcDbEntity
8
0
100
AcDbLine
10
56.81726154238121
20
-94.173643957076536
30
0
11
56.81726154238121
21
-83.12375857029906
31
0
0
SPLINE
5
136
100
AcDbEntity
8
0
100
AcDbSpline
70
0
71
3
72
8
73
4
74
0
42
0.000000001
43
0.0000000001
44
0.0000000001
40
46
40
46
40
46
40
46
40
47
40
47
40
47
40
47
10
56.81726154238121
20
-83.12375857029906
30
0
10
56.81726154238121
20
-82.01918513822234
30
0
10
57.712695230572386
20
-81.123751450031151
30
0
10
58.817268662649411
20
-81.123751450031151
30
0
0
LINE
5
137
100
AcDbEntity
8
0
100
AcDbLine
10
58.817268662649411
20
-81.123751450031151
30
0
11
64.342254419731717
21
-81.123751450031151
31
0
0
SPLINE
5
138
100
AcDbEntity
8
0
100
AcDbSpline
70
0
71
3
72
8
73
4
74
0
42
0.000000001
43
0.0000000001
44
0.0000000001
40
48
40
48
40
48
40
48
40
49
40
49
40
49
40
49
10
64.342254419731717
20
-81.123751450031151
30
0
10
65.446838159689946
20
-81.123751450031151
30
0
10
66.342261539999939
20
-80.228328069720845
30
0
10
66.342261539999939
20
-79.123744329762616
30
0
0
SPLINE
5
139
100
AcDbEntity
8
0
100
AcDbSpline
70
0
71
3
72
17
73
13
74
0
42
0.000000001
43
0.0000000001
44
0.0000000001
40
0
40
0
40
0
40
0
40
1
40
1
40
1
40
2
40
2
40
2
40
3
40
3
40
3
40
4
40
4
40
4
40
4
10
240.74203905716416
20
-56.771806469139783
30
0
10
240.74203905716416
20
-57.683076306081553
30
0
10
240.00330889451899
20
-58.421806468727063
30
0
10
239.09203905757659
20
-58.421806468727063
30
0
10
238.18076922063423
20
-58.421806468727063
30
0
10
237.44203905798901
20
-57.683076306081553
30
0
10
237.44203905798901
20
-56.771806469139783
30
0
10
237.44203905798901
20
-55.860536632197018
30
0
10
238.18076922063423
20
-55.121806469552169
30
0
10
239.09203905757659
20
-55.121806469552169
30
0
10
240.00330889451899
20
-55.121806469552169
30
0
10
240.74203905716416
20
-55.860536632197018
30
0
10
240.74203905716416
20
-56.771806469139783
30
0
0
SPLINE
5
140
100
AcDbEntity
8
0
100
AcDbSpline
70
0
71
3
72
17
73
13
74
0
42
0.000000001
43
0.0000000001
44
0.0000000001
40
0
40
0
40
0
40
0
40
1
40
1
40
1
40
2
40
2
40
2
40
3
40
3
40
3
40
4
40
4
40
4
40
4
10
240.74203905716416
20
-158.62180644367768
30
0
10
240.74203905716416
20
-159.53307628061953
30
0
10
240.00330889451899
20
-160.27180644326472
30
0
10
239.09203905757659
20
-160.27180644326472
30
0
10
238.18076922063423
20
-160.27180644326472
30
0
10
237.44203905798901
20
-159.53307628061953
30
0
10
237.44203905798901
20
-158.62180644367768
30
0
10
237.44203905798901
20
-157.7105366067359
30
0
10
238.18076922063423
20
-156.97180644409011
30
0
10
239.09203905757659
20
-156.97180644409011
30
0
10
240.00330889451899
20
-156.97180644409011
30
0
10
240.74203905716416
20
-157.7105366067359
30
0
10
240.74203905716416
20
-158.62180644367768
30
0
0
SPLINE
5
141
100
AcDbEntity
8
0
100
AcDbSpline
70
0
71
3
72
17
73
13
74
0
42
0.000000001
43
0.0000000001
44
0.0000000001
40
0
40
0
40
0
40
0
40
1
40
1
40
1
40
2
40
2
40
2
40
3
40
3
40
3
40
4
40
4
40
4
40
4
10
69.99203909985124
20
-56.071774118820521
30
0
10
69.99203909985124
20
-56.983043955762618
30
0
10
69.253308937206043
20
-57.721774118407808
30
0
10
68.342039100263619
20
-57.721774118407808
30
0
10
67.430769263321196
20
-57.721774118407808
30
0
10
66.692039100676027
20
-56.983043955762618
30
0
10
66.692039100676027
20
-56.071774118820521
30
0
10
66.692039100676027
20
-55.160504281878424
30
0
10
67.430769263321196
20
-54.4217741192329
30
0
10
68.342039100263619
20
-54.4217741192329
30
0
10
69.253308937206043
20
-54.4217741192329
30
0
10
69.99203909985124
20
-55.160504281878424
30
0
10
69.99203909985124
20
-56.071774118820521
30
0
0
SPLINE
5
142
100
AcDbEntity
8
0
100
AcDbSpline
70
0
71
3
72
17
73
13
74
0
42
0.000000001
43
0.0000000001
44
0.0000000001
40
0
40
0
40
0
40
0
40
1
40
1
40
1
40
2
40
2
40
2
40
3
40
3
40
3
40
4
40
4
40
4
40
4
10
191.35175829494369
20
-56.071774118820521
30
0
10
191.35175829494369
20
-56.983043955762938
30
0
10
190.6130281322985
20
-57.721774118408142
30
0
10
189.70175829535609
20
-57.721774118408142
30
0
10
188.79048845841371
20
-57.721774118408142
30
0
10
188.05175829576851
20
-56.983043955762938
30
0
10
188.05175829576851
20
-56.071774118820521
30
0
10
188.05175829576851
20
-55.160504281878737
30
0
10
188.79048845841371
20
-54.4217741192329
30
0
10
189.70175829535609
20
-54.4217741192329
30
0
10
190.6130281322985
20
-54.4217741192329
30
0
10
191.35175829494369
20
-55.160504281878737
30
0
10
191.35175829494369
20
-56.071774118820521
30
0
0
SPLINE
5
143
100
AcDbEntity
8
0
100
AcDbSpline
70
0
71
3
72
17
73
13
74
0
42
0.000000001
43
0.0000000001
44
0.0000000001
40
0
40
0
40
0
40
0
40
1
40
1
40
1
40
2
40
2
40
2
40
3
40
3
40
3
40
4
40
4
40
4
40
4
10
94.017663935858991
20
-56.071774118820521
30
0
10
94.017663935858991
20
-56.983043955762618
30
0
10
93.278933773213808
20
-57.721774118407808
30
0
10
92.367663936271384
20
-57.721774118407808
30
0
10
91.456394099328961
20
-57.721774118407808
30
0
10
90.717663936683778
20
-56.983043955762618
30
0
10
90.717663936683778
20
-56.071774118820521
30
0
10
90.717663936683778
20
-55.160504281878424
30
0
10
91.456394099328961
20
-54.4217741192329
30
0
10
92.367663936271384
20
-54.4217741192329
30
0
10
93.278933773213808
20
-54.4217741192329
30
0
10
94.017663935858991
20
-55.160504281878424
30
0
10
94.017663935858991
20
-56.071774118820521
30
0
0
SPLINE
5
144
100
AcDbEntity
8
0
100
AcDbSpline
70
0
71
3
72
17
73
13
74
0
42
0.000000001
43
0.0000000001
44
0.0000000001
40
0
40
0
40
0
40
0
40
1
40
1
40
1
40
2
40
2
40
2
40
3
40
3
40
3
40
4
40
4
40
4
40
4
10
157.75457142840509
20
-159.32183879399699
30
0
10
157.75457142840509
20
-160.23310863093869
30
0
10
157.01584126575992
20
-160.97183879358391
30
0
10
156.10457142881751
20
-160.97183879358391
30
0
10
155.19330159187501
20
-160.97183879358391
30
0
10
154.45457142922987
20
-160.23310863093869
30
0
10
154.45457142922987
20
-159.32183879399699
30
0
10
154.45457142922987
20
-158.41056895705518
30
0
10
155.19330159187501
20
-157.67183879440941
30
0
10
156.10457142881751
20
-157.67183879440941
30
0
10
157.01584126575992
20
-157.67183879440941
30
0
10
157.75457142840509
20
-158.41056895705518
30
0
10
157.75457142840509
20
-159.32183879399699
30
0
0
SPLINE
5
145
100
AcDbEntity
8
0
100
AcDbSpline
70
0
71
3
72
17
73
13
74
0
42
0.000000001
43
0.0000000001
44
0.0000000001
40
0
40
0
40
0
40
0
40
1
40
1
40
1
40
2
40
2
40
2
40
3
40
3
40
3
40
4
40
4
40
4
40
4
10
74.75457144915535
20
-159.32183879399699
30
0
10
74.75457144915535
20
-160.23310863093869
30
0
10
74.015841286510152
20
-160.97183879358391
30
0
10
73.104571449567743
20
-160.97183879358391
30
0
10
72.193301612625291
20
-160.97183879358391
30
0
10
71.454571449980122
20
-160.23310863093869
30
0
10
71.454571449980122
20
-159.32183879399699
30
0
10
71.454571449980122
20
-158.41056895705518
30
0
10
72.193301612625291
20
-157.67183879440941
30
0
10
73.104571449567743
20
-157.67183879440941
30
0
10
74.015841286510152
20
-157.67183879440941
30
0
10
74.75457144915535
20
-158.41056895705518
30
0
10
74.75457144915535
20
-159.32183879399699
30
0
0
SPLINE
5
146
100
AcDbEntity
8
0
100
AcDbSpline
70
0
71
3
72
17
73
13
74
0
42
0.000000001
43
0.0000000001
44
0.0000000001
40
0
40
0
40
0
40
0
40
1
40
1
40
1
40
2
40
2
40
2
40
3
40
3
40
3
40
4
40
4
40
4
40
4
10
169.23233442778329
20
-56.071774118820521
30
0
10
169.23233442778329
20
-56.983043955762938
30
0
10
168.49360426513809
20
-57.721774118408142
30
0
10
167.58233442819568
20
-57.721774118408142
30
0
10
166.67106459125318
20
-57.721774118408142
30
0
10
165.93233442860799
20
-56.983043955762938
30
0
10
165.93233442860799
20
-56.071774118820521
30
0
10
165.93233442860799
20
-55.160504281878737
30
0
10
166.67106459125318
20
-54.4217741192329
30
0
10
167.58233442819568
20
-54.4217741192329
30
0
10
168.49360426513809
20
-54.4217741192329
30
0
10
169.23233442778329
20
-55.160504281878737
30
0
10
169.23233442778329
20
-56.071774118820521
30
0
0
LINE
5
147
100
AcDbEntity
8
0
100
AcDbLine
10
239.79198870339752
20
-52.073672789758959
30
0
11
66.343176623406237
21
-52.073672789758959
31
0
0
LINE
5
148
100
AcDbEntity
8
0
100
AcDbLine
10
68.342261539500129
20
-60.073679738985092
30
0
11
233.79203193813316
21
-60.071806468314996
31
0
0
ENDSEC
0
SECTION
2
OBJECTS
0
DICTIONARY
5
C
100
AcDbDictionary
3
ACAD_GROUP
350
D
3
ACAD_MLINESTYLE
350
17
0
DICTIONARY
5
D
100
AcDbDictionary
0
DICTIONARY
5
1A
330
C
100
AcDbDictionary
0
DICTIONARY
5
17
100
AcDbDictionary
0
ENDSEC
0
EOF
